C:\GBW_MyPrograms\KinderuniversiteitApp\Resultaten\Ellis\Smurf\Smurf_v1.mot
version=1
nRows=19
nColumns=29
inDegrees=yes
endheader
                time	         pelvis_tilt	           pelvis_tx	           pelvis_ty	       hip_flexion_l	       hip_flexion_r	        knee_angle_l	        knee_angle_r	       ankle_angle_l	       ankle_angle_r	    lumbar_extension	hamstrings_r/activation	bifemsh_r/activation	glut_max_r/activation	iliopsoas_r/activation	rect_fem_r/activation	  vasti_r/activation	gastroc_r/activation	 soleus_r/activation	tib_ant_r/activation	hamstrings_l/activation	bifemsh_l/activation	glut_max_l/activation	iliopsoas_l/activation	rect_fem_l/activation	  vasti_l/activation	gastroc_l/activation	 soleus_l/activation	tib_ant_l/activation	
          0.00000000	         -8.68981600	          0.00000000	          0.91200946	          5.11412171	         26.01450374	         -0.62812704	        -13.88363369	         11.64309078	          1.96530393	          1.29524617	          0.05000263	          0.05001349	          0.05000657	          0.18354080	          0.18265571	          0.08182364	          0.05000447	          0.05000378	          0.25627194	          0.05000317	          0.05003422	          0.05000490	          0.34269752	          0.16361810	          0.05002963	          0.05005930	          0.05745863	          0.08665139	
          0.02000000	         -8.71490620	          0.00678982	          0.91164598	          4.68828513	         24.91267041	         -0.70523889	        -12.49881981	         12.03660046	          1.40774600	          1.55468748	          0.05000442	          0.05002115	          0.05000801	          0.13765614	          0.19182933	          0.13121509	          0.05000757	          0.05001203	          0.24368931	          0.05000473	          0.05004664	          0.05000616	          0.28392152	          0.14709056	          0.05002441	          0.05021955	          0.07894730	          0.06499271	
          0.03999999	         -8.72039605	          0.01407249	          0.91142328	          4.21877252	         23.64828538	         -0.79883856	        -10.99781142	         12.38642236	          1.04188871	          1.84391181	          0.05000390	          0.05000745	          0.10147808	          0.10324255	          0.22582510	          0.23713136	          0.05000200	          0.05000300	          0.29287387	          0.05000400	          0.05002708	          0.05000635	          0.21557829	          0.15382542	          0.05600931	          0.05003020	          0.09700108	          0.05001252	
          0.05999999	         -8.70765230	          0.02165273	          0.91149645	          3.71772558	         22.34781570	         -0.90006269	         -9.51660660	         12.65851537	          0.84340259	          2.14190069	          0.05000390	          0.05000582	          0.19363100	          0.07743240	          0.25470272	          0.31895216	          0.05000144	          0.05000233	          0.30829694	          0.05000391	          0.05002495	          0.05000567	          0.19508147	          0.15995654	          0.09065196	          0.05002363	          0.10664445	          0.05001516	
          0.07999999	         -8.67757573	          0.02935718	          0.91188637	          3.19234675	         21.08867991	         -0.99557507	         -8.17000647	         12.82849936	          0.81155419	          2.43070478	          0.05000437	          0.05000512	          0.25355822	          0.05807505	          0.27344601	          0.37377459	          0.05000155	          0.05000393	          0.29447369	          0.05000435	          0.05002257	          0.05000809	          0.17490425	          0.16303078	          0.11392375	          0.05001583	          0.10934422	          0.05001821	
          0.09999998	         -8.63071201	          0.03707249	          0.91248076	          2.64616345	         19.88076353	         -1.07562808	         -6.96103262	         12.89240199	          0.92309553	          2.69991221	          0.05000540	          0.05000528	          0.27465277	          0.05000210	          0.27269067	          0.39530430	          0.05000151	          0.05000359	          0.29687076	          0.05000490	          0.05002194	          0.05001056	          0.14236245	          0.15641268	          0.11942900	          0.05001440	          0.11514383	          0.05001965	
          0.11999998	         -8.56756065	          0.04472558	          0.91312453	          2.07970396	         18.71449179	         -1.13282834	         -5.85906420	         12.87208864	          1.12120896	          2.94399404	          0.05000556	          0.05000587	          0.27378004	          0.05000325	          0.25570828	          0.39001291	          0.05000150	          0.05000291	          0.30723482	          0.05000475	          0.05002264	          0.05000763	          0.10778482	          0.14169013	          0.11798894	          0.05001541	          0.12604435	          0.05001971	
          0.13999998	         -8.48912461	          0.05225932	          0.91369473	          1.49239063	         17.58879979	         -1.16007044	         -4.85159361	         12.80333224	          1.37088539	          3.15965730	          0.05001045	          0.05000662	          0.26156030	          0.05000307	          0.22548037	          0.36578454	          0.05000154	          0.05000251	          0.31978976	          0.05000662	          0.05002241	          0.05001442	          0.08094600	          0.12279834	          0.11319001	          0.05001800	          0.14173544	          0.05001575	
          0.15999998	         -8.39718350	          0.05961958	          0.91413135	          0.88615537	         16.51202344	         -1.15311411	         -3.94457774	         12.71843921	          1.66498596	          3.34451931	          0.05001160	          0.05000787	          0.24099550	          0.05000377	          0.18118579	          0.32950890	          0.05000167	          0.05000230	          0.33119425	          0.05000669	          0.05002330	          0.05001261	          0.06093140	          0.10552733	          0.10708295	          0.05005224	          0.15803621	          0.05001028	
          0.17999997	         -8.29438297	          0.06675321	          0.91443236	          0.26700835	         15.49687996	         -1.11173116	         -3.15069720	         12.63445405	          2.00297775	          3.49705333	          0.05003008	          0.05000943	          0.21882333	          0.05000393	          0.13593868	          0.28673554	          0.05000182	          0.05000215	          0.34037648	          0.05001014	          0.05002339	          0.05002788	          0.05002689	          0.08461861	          0.09844629	          0.05912746	          0.16921802	          0.05000866	
          0.19999997	         -8.18394832	          0.07361019	          0.91463248	         -0.35135193	         14.55432107	         -1.04758357	         -2.47757946	         12.55714022	          2.37873780	          3.61662471	          0.05404119	          0.05001178	          0.19755953	          0.05000485	          0.10197318	          0.24040090	          0.05000201	          0.05000201	          0.34679884	          0.05001325	          0.05002460	          0.05002904	          0.05002916	          0.06454176	          0.09208401	          0.07213575	          0.17436359	          0.05000792	
          0.21999997	         -8.06941371	          0.08014875	          0.91477735	         -0.94865545	         13.69053700	         -0.98530063	         -1.92360666	         12.49973507	          2.78000600	          3.70382851	          0.06058139	          0.05001451	          0.17234176	          0.05000584	          0.07649726	          0.19464674	          0.05000222	          0.05000193	          0.34997344	          0.05001644	          0.05002536	          0.05002314	          0.05002184	          0.05133054	          0.08235932	          0.08107557	          0.17100771	          0.05000738	
          0.23999996	         -7.95443583	          0.08633809	          0.91490369	         -1.50005906	         12.90839279	         -0.96129519	         -1.48167877	         12.49018002	          3.19174323	          3.76060204	          0.06445656	          0.05001770	          0.15061499	          0.05000734	          0.05739667	          0.15434374	          0.05000245	          0.05000189	          0.35012741	          0.05001633	          0.05002773	          0.05069939	          0.05002172	          0.05006043	          0.06548094	          0.07828529	          0.15705234	          0.05000967	
          0.25999996	         -7.84264416	          0.09215989	          0.91503139	         -1.97681706	         12.20718721	         -1.02390542	         -1.13954509	         12.57095210	          3.59917149	          3.79018708	          0.06902692	          0.05002122	          0.12909415	          0.05000918	          0.05004280	          0.12242808	          0.05000259	          0.05000186	          0.34729424	          0.05002265	          0.05002881	          0.05120228	          0.05002168	          0.05004605	          0.06058833	          0.08359131	          0.11852174	          0.05000800	
          0.27999996	         -7.73760404	          0.09760660	          0.91516414	         -2.34581605	         11.58413155	         -1.23556606	         -0.88302601	         12.79617792	          3.99197431	          3.79683918	          0.07210206	          0.05002291	          0.10885113	          0.05000666	          0.05002024	          0.09307106	          0.05000276	          0.05000188	          0.34086168	          0.05080864	          0.05003251	          0.05009143	          0.05000312	          0.05001796	          0.05002764	          0.06345233	          0.08889316	          0.05001173	
          0.29999995	         -7.64129199	          0.10267797	          0.91529714	         -2.57555209	         11.03666409	         -1.65636804	         -0.70307967	         13.18590260	          4.36589424	          3.78348625	          0.07369556	          0.05002565	          0.08518515	          0.05000657	          0.05002495	          0.06988783	          0.05000306	          0.05000195	          0.33021911	          0.05868354	          0.05006004	          0.05003481	          0.05728094	          0.05001331	          0.05000931	          0.05003643	          0.06667116	          0.08813152	
          0.31999995	         -7.55302832	          0.10737687	          0.91542337	         -2.63916055	         10.56185862	         -2.34242633	         -0.59598990	         13.75568000	          4.72079071	          3.74985500	          0.08472650	          0.05002986	          0.08496958	          0.05001534	          0.05003205	          0.05294864	          0.05000343	          0.05000210	          0.31481122	          0.07297878	          0.05061003	          0.05000041	          0.11709753	          0.05001227	          0.05000522	          0.05009953	          0.05000701	          0.14672652	
          0.33999995	         -7.47204779	          0.11170199	          0.91553732	         -2.50225732	         10.15403927	         -3.36056290	         -0.55245182	         14.48944376	          5.05559413	          3.69470651	          0.09740735	          0.05003126	          0.08707003	          0.05001326	          0.05002488	          0.05005498	          0.05000381	          0.05000227	          0.29631732	          0.07932959	          0.07109860	          0.05001074	          0.18387345	          0.05000852	          0.05000347	          0.05001107	          0.05000219	          0.21735866	
          0.35999994	         -7.39784048	          0.11565706	          0.91563728	         -2.14016401	          9.80382509	         -4.74834993	         -0.55615798	         15.33117713	          5.36758896	          3.61748982	          0.11210146	          0.05003214	          0.09592733	          0.05001043	          0.05001878	          0.05004953	          0.05000430	          0.05000253	          0.27458490	          0.06971055	          0.09209603	          0.05000786	          0.24726784	          0.05000799	          0.05000266	          0.05000834	          0.05000179	          0.27438512	
